# xmcd
# 
# Track frame offsets:
#     150
#     9322
#     19342
#     31535
#     40055
#     51622
#     62428
#     74741
#     88038
#     101676
#     118920
#     133595
#     145960
#     165917
#     177701
#     190710
#     203135
#     214736
#     227439
#     235988
# 
# Disc length: 3332
# 
# Revision: 0
# Processed by: cddbd v1.5.2PL0 Copyright (c) Steve Scherf et al.
# Submitted via: fre:ac v1.0.27
# 
DISCID=190d0214
DTITLE=Various Artist - Deep In The Heart Of Texas
DYEAR=2000
DGENRE=Country
TTITLE0=Faron Young - Hello Walls
TTITLE1=Bill Monroe - Blue Moon Of Kentucky
TTITLE2=Buck Owens - Down On The Corner Of Love
TTITLE3=Waylon Jennings - Abilene
TTITLE4=Conway Twitty - You Made Me What I Am Today
TTITLE5=Dolly Parton - Honky Tonk Angels
TTITLE6=Don Williams - She Walked Out On Her Way To Be A Woman
TTITLE7=Kenny Rogers - Ruby Don't Take Your Love To Town
TTITLE8=Hank Snow - The Hobo's Last Ride
TTITLE9=Ferlin Husky - Convoy
TTITLE10=Willie Nelson - Face Of A Fighter
TTITLE11=GeneAutry - Deep In The Heart Of Texas
TTITLE12=Don Fardon - Folsom Prison Blues
TTITLE13=Frankie Laine - Jambalaya
TTITLE14=Kitty Wells - Making Believe
TTITLE15=George Jones - Blue Side Of Lonesome
TTITLE16=Bill Monroe - Bluegrass Breakdown
TTITLE17=Tex Ritter - High Noon
TTITLE18=Burl Ives - A Little Bitty Tear Let Me Down
TTITLE19=Carter Family - Can The Circle Be Unbroken (Bye and Bye)
EXTD=hgc
EXTT0=
EXTT1=
EXTT2=
EXTT3=
EXTT4=
EXTT5=
EXTT6=
EXTT7=
EXTT8=
EXTT9=
EXTT10=
EXTT11=
EXTT12=
EXTT13=
EXTT14=
EXTT15=
EXTT16=
EXTT17=
EXTT18=
EXTT19=
PLAYORDER=
